<svg width="20" height="20" viewBox="0 0 20 20" fill="none" xmlns="http://www.w3.org/2000/svg">
<path d="M10 1.04166C7.87207 1.04056 5.81324 1.79698 4.19217 3.17546C2.57109 4.55394 1.49365 6.46446 1.15276 8.56491C0.811877 10.6654 1.22982 12.8186 2.33174 14.639C3.43367 16.4594 5.14761 17.8281 7.16667 18.5C7.61667 18.5833 7.77917 18.3083 7.77917 18.0833V16.5625C5.27917 17.1042 4.7625 15.3625 4.7625 15.3625C4.59714 14.8114 4.23736 14.3391 3.75 14.0333C2.9375 13.4792 3.8125 13.4875 3.8125 13.4875C4.09632 13.5272 4.36732 13.6312 4.60488 13.7915C4.84244 13.9518 5.04028 14.1642 5.18334 14.4125C5.98334 15.7833 7.26667 15.3875 7.79167 15.1583C7.83312 14.7031 8.03552 14.2777 8.3625 13.9583C6.37084 13.7333 4.27917 12.9667 4.27917 9.53332C4.26597 8.64264 4.59737 7.7813 5.20417 7.12916C4.92849 6.35686 4.95981 5.5082 5.29167 4.75832C5.29167 4.75832 6.04167 4.51666 7.75417 5.67499C9.22185 5.27499 10.7698 5.27499 12.2375 5.67499C13.95 4.51666 14.7 4.75832 14.7 4.75832C15.0294 5.50878 15.0606 6.35647 14.7875 7.12916C15.3932 7.78171 15.7231 8.64314 15.7083 9.53332C15.7083 12.975 13.625 13.7292 11.6208 13.9542C11.8359 14.172 12.0015 14.4337 12.1065 14.7213C12.2115 15.0088 12.2533 15.3156 12.2292 15.6208V18.0792C12.2292 18.375 12.3917 18.5958 12.8458 18.4958C14.8628 17.8213 16.5741 16.4512 17.6734 14.6305C18.7727 12.8099 19.1884 10.6575 18.8462 8.5584C18.504 6.45932 17.4261 4.55048 15.8053 3.17332C14.1846 1.79617 12.1268 1.04056 10 1.04166Z" stroke="#222222" stroke-width="0.416667" stroke-linecap="round" stroke-linejoin="round"/>
</svg>
